<svg xmlns="http://www.w3.org/2000/svg" fill="none" viewBox="0 0 133 80" height="80" width="133">
<mask height="62" width="115" y="9" x="9" maskUnits="userSpaceOnUse" style="mask-type:luminance" id="mask0_5734_4621">
<path fill="white" d="M123.314 9.41211H9.44336V70.3572H123.314V9.41211Z"></path>
</mask>
<g mask="url(#mask0_5734_4621)">
<path fill="#27502B" d="M29.2732 38.3985H22.675L16.7803 28.6227L14.9175 30.6853V38.3985H9.45117V15H14.9254V23.5328L22.1641 15H28.7072L20.4546 24.3328L29.2732 38.3985Z"></path>
<path fill="#27502B" d="M47.1771 38.3985H31.6816V15H46.8898V19.3605H37.16V24.1445H46.3437V28.5247H37.16V33.9518H47.1771V38.3985Z"></path>
<path fill="#27502B" d="M72.6702 38.3985H67.0228L56.7149 22.5172C56.7149 22.5172 56.8173 25.3327 56.8173 27.811V38.3985H51.4453V15H57.3398L67.4081 30.748C67.4081 30.748 67.3058 28.1012 67.3058 25.6229V15H72.682L72.6702 38.3985Z"></path>
<path fill="#27502B" d="M97.6323 38.3985H91.0343L85.1394 28.6227L83.277 30.6853V38.3985H77.8027V15H83.277V23.5328L90.5235 15H97.0547L88.802 24.3328L97.6323 38.3985Z"></path>
<path fill="#27502B" d="M110.823 38.8063C103.851 38.8063 98.373 34.2929 98.373 26.7248C98.373 19.1566 103.851 14.6079 110.823 14.6079C117.794 14.6079 123.288 19.1566 123.288 26.7248C123.288 34.2929 117.786 38.8063 110.823 38.8063ZM110.823 19.2899C106.913 19.2899 103.954 22.1094 103.954 26.5875C103.954 31.0657 106.913 33.9204 110.823 33.9204C114.733 33.9204 117.696 31.0696 117.696 26.5875C117.696 22.1054 114.737 19.2899 110.823 19.2899ZM116.214 12.0276H105.415V9.41211H116.214V12.0276Z"></path>
<path fill="#27502B" d="M79.3009 51.206H73.249V70.2911H67.7472V51.206H61.6953V46.8613H79.3127L79.3009 51.206Z"></path>
<path fill="#27502B" d="M97.9388 70.2911H82.4277V46.8613H97.6322V51.2374H87.902V56.0252H97.0861V60.4013H87.902V65.8327H97.9388V70.2911Z"></path>
<path fill="#27502B" d="M123.31 70.2912H117.325L115.659 65.5857H107.304L105.638 70.2912H99.9082L108.75 46.8379H114.468L123.31 70.2912ZM114.398 61.272L111.474 52.8532L108.546 61.272H114.398Z"></path>
<path fill="#27502B" d="M15.3185 69.3028C14.9946 69.6518 14.5992 69.9271 14.159 70.1098C13.7189 70.2926 13.2445 70.3785 12.7681 70.3616C12.3133 70.3695 11.8619 70.2828 11.4425 70.1071C11.023 69.9318 10.6447 69.671 10.3316 69.342C9.41594 68.4008 9.44345 67.2361 9.44345 65.6326C9.44345 64.0287 9.41594 62.86 10.3316 61.9189C10.6431 61.5875 11.0211 61.3255 11.4409 61.1498C11.8607 60.9742 12.3129 60.8891 12.7681 60.8993C14.8627 60.8993 15.9119 62.311 16.1674 63.8797H14.3911C14.1867 63.0051 13.668 62.5228 12.7681 62.5228C12.5547 62.5173 12.3427 62.5589 12.1472 62.6444C11.9516 62.7298 11.7772 62.8569 11.6363 63.0169C11.2944 63.4091 11.204 63.8404 11.204 65.6326C11.204 67.4244 11.2944 67.8636 11.6363 68.2557C11.7774 68.4146 11.9522 68.5404 12.1479 68.624C12.3436 68.7071 12.5554 68.7463 12.7681 68.7381C13.0023 68.7459 13.2354 68.7036 13.4517 68.6134C13.668 68.5236 13.8624 68.3883 14.0217 68.2165C14.3018 67.8663 14.4418 67.4247 14.4147 66.9773V66.6244H12.7524V65.1071H16.1634V66.4675C16.1792 67.8126 15.9512 68.6204 15.3185 69.3028Z"></path>
<path fill="#27502B" d="M22.5171 70.2907L20.7526 66.577H19.4833V70.2907H17.7031V60.9774H21.2399C21.6245 60.955 22.0095 61.0126 22.3705 61.1468C22.7314 61.2813 23.0603 61.4891 23.3362 61.7574C23.6121 62.0256 23.8288 62.3483 23.9727 62.7048C24.1165 63.0617 24.1843 63.444 24.1716 63.8283C24.1906 64.3566 24.0416 64.8777 23.7458 65.3166C23.45 65.7554 23.0227 66.0895 22.525 66.2711L24.5607 70.2907H22.5171ZM21.1456 62.6087H19.4833V65.0636H21.1456C21.3072 65.0636 21.4671 65.0319 21.6164 64.9699C21.7656 64.9083 21.9012 64.8181 22.0154 64.704C22.1296 64.5899 22.2202 64.4546 22.282 64.306C22.3438 64.157 22.3757 63.9974 22.3757 63.8362C22.3757 63.675 22.3438 63.5154 22.282 63.3664C22.2202 63.2174 22.1296 63.0821 22.0154 62.9683C21.9012 62.8542 21.7656 62.764 21.6164 62.7021C21.4671 62.6405 21.3072 62.6087 21.1456 62.6087Z"></path>
<path fill="#27502B" d="M25.7715 70.2909V60.9775H31.7252V62.6011H27.5281V64.8011H31.0925V66.4203H27.5281V68.6791H31.7173V70.2909H25.7715Z"></path>
<path fill="#27502B" d="M33.1992 70.2909V60.9775H39.1529V62.6011H34.9637V64.8011H38.532V66.4203H34.9637V68.6791H39.1529V70.2909H33.1992Z"></path>
<path fill="#27502B" d="M45.9717 70.2909L42.3953 64.5815V70.2909H40.6309V60.9775H42.2029L45.7828 66.6752V60.9775H47.5476V70.2909H45.9717Z"></path>
<path fill="#27502B" d="M16.1673 56.1264V50.7072L14.4421 54.2362H13.2632L11.5262 50.7072V56.1264H9.76172V46.8252H11.5026L13.8605 51.8562L16.2184 46.8252H17.9554V56.1264H16.1673Z"></path>
<path fill="#27502B" d="M24.9313 56.1264L24.3968 54.4793H21.1862L20.6399 56.1264H18.8008L22.0861 46.8252H23.4733L26.7704 56.1264H24.9313ZM22.8131 49.5699L21.6695 52.9542H23.9174L22.8131 49.5699Z"></path>
<path fill="#27502B" d="M30.3274 48.4444V56.1264H28.563V48.4444H26.2051V46.8252H32.6893V48.4444H30.3274Z"></path>
<path fill="#27502B" d="M36.637 56.2838C36.1822 56.2921 35.7308 56.2058 35.3114 56.0301C34.8918 55.8548 34.5135 55.594 34.2007 55.2642C33.289 54.327 33.3126 53.1626 33.3126 51.5548C33.3126 49.947 33.289 48.7862 34.2007 47.845C34.5135 47.5156 34.8918 47.2548 35.3114 47.0791C35.7308 46.9038 36.1822 46.8172 36.637 46.8258C38.3271 46.8258 39.6473 47.8175 39.9617 49.7666H38.1736C37.997 49.0215 37.5409 48.445 36.6528 48.445C36.4399 48.4375 36.2282 48.4775 36.0322 48.5615C35.8367 48.6458 35.662 48.7721 35.5211 48.9313C35.1792 49.3234 35.0769 49.7666 35.0769 51.5548C35.0769 53.343 35.1792 53.7897 35.5211 54.1819C35.6624 54.3411 35.8371 54.4666 36.0326 54.5501C36.2286 54.6336 36.4403 54.6724 36.6528 54.6642C37.5409 54.6642 37.997 54.0877 38.1736 53.347H39.9617C39.6473 55.2917 38.3153 56.2838 36.637 56.2838Z"></path>
<path fill="#27502B" d="M46.0621 56.1264V52.2523H43.0007V56.146H41.2402V46.8252H43.0007V50.6287H46.0621V46.8252H47.8265V56.1264H46.0621Z"></path>
<path fill="#27502B" d="M54.82 56.1264L54.2896 54.4793H51.0791L50.5325 56.1264H48.6934L51.979 46.8252H53.3621L56.6631 56.1264H54.82ZM52.7137 49.5699L51.5741 52.9542H53.8182L52.7137 49.5699Z"></path>
</g>
</svg>
